<svg width="27" height="24" viewBox="0 0 27 24" fill="none" xmlns="http://www.w3.org/2000/svg">
<path fill-rule="evenodd" clip-rule="evenodd" d="M10.3334 0.25C10.8715 0.25 11.3491 0.594288 11.5193 1.10472L17.3334 18.5472L19.6476 11.6047C19.8177 11.0943 20.2954 10.75 20.8334 10.75H25.5001C26.1904 10.75 26.7501 11.3096 26.7501 12C26.7501 12.6904 26.1904 13.25 25.5001 13.25H21.7344L18.5193 22.8953C18.3491 23.4057 17.8715 23.75 17.3334 23.75C16.7954 23.75 16.3177 23.4057 16.1476 22.8953L10.3334 5.45285L8.01927 12.3953C7.84913 12.9057 7.37145 13.25 6.83341 13.25H2.16675C1.47639 13.25 0.916748 12.6904 0.916748 12C0.916748 11.3096 1.47639 10.75 2.16675 10.75H5.93247L9.14756 1.10472C9.3177 0.594288 9.79538 0.25 10.3334 0.25Z" fill="white"/>
</svg>
