<svg width="33" height="18" viewBox="0 0 33 18" fill="none" xmlns="http://www.w3.org/2000/svg">
<path d="M22.5001 2.99951H3V14.9996H22.5001V2.99951Z" fill="white"/>
<path d="M31.5002 5.99973V2.99975C31.5002 1.3429 30.157 -0.000244138 28.5002 -0.000244138H2.99999C1.34315 -0.000308592 0 1.34284 0 2.99968V14.9998C0 16.6566 1.34315 17.9998 2.99999 17.9998H28.5001C30.157 17.9998 31.5001 16.6566 31.5001 14.9998V11.9998C32.3285 11.9998 33.0001 11.3282 33.0001 10.4998V7.49976C33.0002 6.67128 32.3286 5.99973 31.5002 5.99973ZM30.0002 7.4997V14.9998C30.0002 15.8282 29.3286 16.4998 28.5002 16.4998H2.99999C2.17157 16.4998 1.49996 15.8282 1.49996 14.9998V2.99968C1.49996 2.17126 2.17157 1.49965 2.99999 1.49965H28.5001C29.3285 1.49965 30.0001 2.17126 30.0001 2.99968L30.0002 7.4997Z" fill="white" fill-opacity="0.5"/>
</svg>
