<svg width="10" height="10" viewBox="0 0 10 10" fill="none" xmlns="http://www.w3.org/2000/svg">
<path d="M5.96069 5.0002L8.99991 8.03942C9.26676 8.30626 9.26676 8.73603 8.99991 9.00006C8.73307 9.26691 8.30331 9.26691 8.03927 9.00006L5.00005 5.96084L1.96082 9.00006C1.69398 9.26691 1.26422 9.26691 1.00018 9.00006C0.733338 8.73322 0.733338 8.30346 1.00018 8.03942L4.03941 5.0002L1.00018 1.96097C0.733338 1.69413 0.733338 1.26437 1.00018 1.00033C1.26703 0.733484 1.69679 0.733484 1.96082 1.00033L5.00005 4.03955L8.03927 1.00033C8.30612 0.733484 8.73588 0.733484 8.99991 1.00033C9.26676 1.26717 9.26676 1.69694 8.99991 1.96097L5.96069 5.0002Z" fill="#B1B1B1"/>
</svg>
