<svg width="14" height="14" viewBox="0 0 14 14" fill="none" xmlns="http://www.w3.org/2000/svg">
<path d="M11.8199 5.30737H6.50845C5.85657 5.30737 5.32812 5.83722 5.32812 6.49082V11.8164C5.32812 12.47 5.85657 12.9998 6.50845 12.9998H11.8199C12.4718 12.9998 13.0002 12.47 13.0002 11.8164V6.49082C13.0002 5.83722 12.4718 5.30737 11.8199 5.30737Z" stroke="white" stroke-linecap="round" stroke-linejoin="round"/>
<path d="M2.77048 8.69243H2.18032C1.86728 8.69243 1.56706 8.56774 1.34571 8.3458C1.12435 8.12386 1 7.82285 1 7.50898V2.18345C1 1.86958 1.12435 1.56856 1.34571 1.34662C1.56706 1.12468 1.86728 1 2.18032 1H7.49177C7.80481 1 8.10503 1.12468 8.32638 1.34662C8.54774 1.56856 8.67209 1.86958 8.67209 2.18345V2.77518" stroke="white" stroke-linecap="round" stroke-linejoin="round"/>
</svg>
