<svg width="12" height="13" viewBox="0 0 12 13" fill="none" xmlns="http://www.w3.org/2000/svg">
<path d="M2.21091 6.70496L6.74542 2.17044C7.08156 1.8343 7.08156 1.29235 6.74542 0.95621C6.40928 0.620066 5.86733 0.620066 5.53119 0.95621L0.389553 6.09784C0.228341 6.25905 0.13916 6.47515 0.13916 6.70496C0.13916 6.93477 0.228341 7.15087 0.389553 7.31208L5.53119 12.4537C5.69926 12.6218 5.91878 12.7041 6.1383 12.7041C6.35783 12.7041 6.57735 12.6218 6.74542 12.4537C7.08156 12.1176 7.08156 11.5756 6.74542 11.2395L2.21091 6.70496Z" fill="white"/>
<path d="M6.86202 6.70496L11.4 2.17044C11.7361 1.8343 11.7361 1.29235 11.4 0.95621C11.0638 0.620066 10.5219 0.620066 10.1857 0.95621L5.0441 6.09784C4.70796 6.43399 4.70796 6.97593 5.0441 7.31208L10.1857 12.4537C10.3538 12.6218 10.5733 12.7041 10.7929 12.7041C11.0124 12.7041 11.2319 12.6218 11.4 12.4537C11.7361 12.1176 11.7361 11.5756 11.4 11.2395L6.86202 6.70496Z" fill="white"/>
</svg>
