<svg width="12" height="13" viewBox="0 0 12 13" fill="none" xmlns="http://www.w3.org/2000/svg">
<path d="M9.6846 6.49914L5.15009 11.0337C4.81394 11.3698 4.81394 11.9117 5.15009 12.2479C5.48623 12.584 6.02818 12.584 6.36432 12.2479L11.506 7.10626C11.6672 6.94505 11.7563 6.72895 11.7563 6.49914C11.7563 6.26933 11.6672 6.05324 11.506 5.89202L6.36432 0.750392C6.19625 0.58232 5.97673 0.499999 5.75721 0.499999C5.53768 0.499999 5.31816 0.58232 5.15009 0.750392C4.81394 1.08654 4.81394 1.62848 5.15009 1.96463L9.6846 6.49914Z" fill="#676B6E"/>
<path d="M5.03349 6.49914L0.495541 11.0337C0.159397 11.3698 0.159397 11.9117 0.495541 12.2479C0.831686 12.584 1.37363 12.584 1.70978 12.2479L6.85141 7.10626C7.18755 6.77012 7.18755 6.22817 6.85141 5.89202L1.70978 0.750392C1.5417 0.58232 1.32218 0.499999 1.10266 0.499999C0.883136 0.499999 0.663614 0.58232 0.495542 0.750392C0.159398 1.08654 0.159398 1.62848 0.495542 1.96463L5.03349 6.49914Z" fill="#676B6E"/>
</svg>
