<svg width="32" height="28" viewBox="0 0 32 28" fill="none" xmlns="http://www.w3.org/2000/svg">
<path d="M1.375 5.28125H30.625C31.2464 5.28125 31.75 4.7776 31.75 4.15625V1.34375C31.75 0.722398 31.2464 0.21875 30.625 0.21875H1.375C0.753648 0.21875 0.25 0.722398 0.25 1.34375V4.15625C0.25 4.7776 0.753648 5.28125 1.375 5.28125ZM1.375 16.5312H30.625C31.2464 16.5312 31.75 16.0276 31.75 15.4062V12.5938C31.75 11.9724 31.2464 11.4688 30.625 11.4688H1.375C0.753648 11.4688 0.25 11.9724 0.25 12.5938V15.4062C0.25 16.0276 0.753648 16.5312 1.375 16.5312ZM1.375 27.7812H30.625C31.2464 27.7812 31.75 27.2776 31.75 26.6562V23.8438C31.75 23.2224 31.2464 22.7188 30.625 22.7188H1.375C0.753648 22.7188 0.25 23.2224 0.25 23.8438V26.6562C0.25 27.2776 0.753648 27.7812 1.375 27.7812Z" fill="white"/>
</svg>
