<svg width="26" height="27" viewBox="0 0 26 27" fill="none" xmlns="http://www.w3.org/2000/svg">
<path d="M21.7782 12.2778H4.6671C3.31707 12.2778 2.22266 13.3722 2.22266 14.7223V23.2778C2.22266 24.6279 3.31707 25.7223 4.6671 25.7223H21.7782C23.1282 25.7223 24.2227 24.6279 24.2227 23.2778V14.7223C24.2227 13.3722 23.1282 12.2778 21.7782 12.2778Z" stroke="#7F8080" stroke-width="2.5" stroke-linecap="round" stroke-linejoin="round"/>
<path d="M7.11133 12.2778V7.38894C7.11133 5.76818 7.75518 4.21379 8.90123 3.06774C10.0473 1.92168 11.6017 1.27783 13.2224 1.27783C14.8432 1.27783 16.3976 1.92168 17.5436 3.06774C18.6897 4.21379 19.3336 5.76818 19.3336 7.38894V12.2778" stroke="#7F8080" stroke-width="2.5" stroke-linecap="round" stroke-linejoin="round"/>
</svg>
