<svg width="405" height="121" viewBox="0 0 405 121" fill="none" xmlns="http://www.w3.org/2000/svg">
<path d="M82.2642 87V72.4545H92.0653V74.9901H85.3395V78.456H91.5611V80.9915H85.3395V84.4645H92.0938V87H82.2642ZM96.5103 87V72.4545H106.311V74.9901H99.5856V78.456H105.807V80.9915H99.5856V84.4645H106.34V87H96.5103ZM120.401 77.1562C120.302 76.8106 120.162 76.5052 119.982 76.2401C119.802 75.9702 119.582 75.7429 119.322 75.5582C119.066 75.3688 118.772 75.2244 118.441 75.125C118.114 75.0256 117.752 74.9759 117.354 74.9759C116.611 74.9759 115.958 75.1605 115.394 75.5298C114.835 75.8991 114.4 76.4366 114.087 77.142C113.775 77.8428 113.619 78.6998 113.619 79.7131C113.619 80.7263 113.772 81.5881 114.08 82.2983C114.388 83.0085 114.824 83.5507 115.387 83.9247C115.951 84.294 116.616 84.4787 117.383 84.4787C118.079 84.4787 118.673 84.3556 119.165 84.1094C119.663 83.8584 120.041 83.5057 120.302 83.0511C120.567 82.5966 120.7 82.0592 120.7 81.4389L121.325 81.5312H117.575V79.2159H123.661V81.0483C123.661 82.3267 123.391 83.4252 122.852 84.3438C122.312 85.2576 121.568 85.9631 120.621 86.4602C119.674 86.9527 118.59 87.1989 117.369 87.1989C116.005 87.1989 114.807 86.8982 113.775 86.2969C112.743 85.6908 111.938 84.8314 111.36 83.7188C110.787 82.6013 110.501 81.2756 110.501 79.7415C110.501 78.5625 110.671 77.5114 111.012 76.5881C111.358 75.66 111.841 74.8741 112.461 74.2301C113.081 73.5862 113.803 73.0961 114.627 72.7599C115.451 72.4238 116.344 72.2557 117.305 72.2557C118.129 72.2557 118.896 72.3764 119.606 72.6179C120.316 72.8546 120.946 73.1908 121.495 73.6264C122.049 74.062 122.501 74.5805 122.852 75.1818C123.202 75.7784 123.427 76.4366 123.526 77.1562H120.401ZM147.434 77.5469H144.323C144.266 77.1444 144.15 76.7869 143.975 76.4744C143.8 76.1572 143.575 75.8873 143.3 75.6648C143.026 75.4422 142.709 75.2718 142.349 75.1534C141.994 75.035 141.608 74.9759 141.191 74.9759C140.438 74.9759 139.782 75.1629 139.224 75.5369C138.665 75.9062 138.232 76.446 137.924 77.1562C137.616 77.8617 137.462 78.7187 137.462 79.7273C137.462 80.7642 137.616 81.6354 137.924 82.3409C138.237 83.0464 138.672 83.5791 139.231 83.9389C139.79 84.2988 140.436 84.4787 141.17 84.4787C141.582 84.4787 141.963 84.4242 142.313 84.3153C142.668 84.2064 142.983 84.0478 143.258 83.8395C143.532 83.6264 143.76 83.3684 143.94 83.0653C144.124 82.7623 144.252 82.4167 144.323 82.0284L147.434 82.0426C147.353 82.7102 147.152 83.3542 146.83 83.9744C146.513 84.59 146.085 85.1416 145.545 85.6293C145.01 86.1122 144.371 86.4957 143.627 86.7798C142.888 87.0592 142.053 87.1989 141.12 87.1989C139.823 87.1989 138.663 86.9053 137.64 86.3182C136.622 85.7311 135.817 84.8812 135.225 83.7685C134.638 82.6558 134.344 81.3087 134.344 79.7273C134.344 78.1411 134.643 76.7917 135.239 75.679C135.836 74.5663 136.646 73.7187 137.668 73.1364C138.691 72.5492 139.842 72.2557 141.12 72.2557C141.963 72.2557 142.744 72.3741 143.464 72.6108C144.188 72.8475 144.83 73.1932 145.388 73.6477C145.947 74.0975 146.402 74.6491 146.752 75.3026C147.107 75.956 147.335 76.7041 147.434 77.5469ZM154.608 72.4545V87H151.582V72.4545H154.608ZM163.961 87.2131C162.857 87.2131 161.903 86.9787 161.098 86.5099C160.298 86.0365 159.68 85.3783 159.245 84.5355C158.809 83.688 158.591 82.7055 158.591 81.5881C158.591 80.4612 158.809 79.4763 159.245 78.6335C159.68 77.786 160.298 77.1278 161.098 76.6591C161.903 76.1856 162.857 75.9489 163.961 75.9489C165.064 75.9489 166.016 76.1856 166.816 76.6591C167.621 77.1278 168.241 77.786 168.676 78.6335C169.112 79.4763 169.33 80.4612 169.33 81.5881C169.33 82.7055 169.112 83.688 168.676 84.5355C168.241 85.3783 167.621 86.0365 166.816 86.5099C166.016 86.9787 165.064 87.2131 163.961 87.2131ZM163.975 84.8693C164.477 84.8693 164.896 84.7273 165.232 84.4432C165.568 84.1544 165.821 83.7614 165.992 83.2642C166.167 82.767 166.255 82.2012 166.255 81.5668C166.255 80.9323 166.167 80.3665 165.992 79.8693C165.821 79.3722 165.568 78.9792 165.232 78.6903C164.896 78.4015 164.477 78.2571 163.975 78.2571C163.468 78.2571 163.042 78.4015 162.696 78.6903C162.355 78.9792 162.097 79.3722 161.922 79.8693C161.752 80.3665 161.667 80.9323 161.667 81.5668C161.667 82.2012 161.752 82.767 161.922 83.2642C162.097 83.7614 162.355 84.1544 162.696 84.4432C163.042 84.7273 163.468 84.8693 163.975 84.8693ZM180.293 82.3551V76.0909H183.319V87H180.414V85.0185H180.3C180.054 85.6577 179.644 86.1714 179.071 86.5597C178.503 86.9479 177.81 87.142 176.99 87.142C176.261 87.142 175.62 86.9763 175.066 86.6449C174.512 86.3134 174.078 85.8423 173.766 85.2315C173.458 84.6207 173.302 83.8892 173.297 83.0369V76.0909H176.323V82.4972C176.328 83.1411 176.5 83.6501 176.841 84.0241C177.182 84.3982 177.639 84.5852 178.212 84.5852C178.577 84.5852 178.917 84.5024 179.235 84.3366C179.552 84.1662 179.808 83.9152 180.002 83.5838C180.201 83.2524 180.298 82.8428 180.293 82.3551ZM191.759 87.1776C190.93 87.1776 190.179 86.9645 189.507 86.5384C188.839 86.1075 188.309 85.4754 187.916 84.642C187.528 83.804 187.334 82.7765 187.334 81.5597C187.334 80.3097 187.535 79.2704 187.938 78.4418C188.34 77.6084 188.875 76.9858 189.543 76.5739C190.215 76.1572 190.951 75.9489 191.751 75.9489C192.362 75.9489 192.871 76.053 193.278 76.2614C193.69 76.465 194.022 76.7206 194.273 77.0284C194.528 77.3314 194.723 77.6297 194.855 77.9233H194.947V72.4545H197.966V87H194.983V85.2528H194.855C194.713 85.5559 194.512 85.8565 194.251 86.1548C193.996 86.4484 193.662 86.6922 193.25 86.8864C192.843 87.0805 192.346 87.1776 191.759 87.1776ZM192.717 84.7699C193.205 84.7699 193.617 84.6373 193.953 84.3722C194.294 84.1023 194.554 83.7259 194.734 83.2429C194.919 82.7599 195.011 82.1941 195.011 81.5455C195.011 80.8968 194.921 80.3333 194.741 79.8551C194.562 79.3769 194.301 79.0076 193.96 78.7472C193.619 78.4867 193.205 78.3565 192.717 78.3565C192.22 78.3565 191.801 78.4915 191.46 78.7614C191.119 79.0312 190.861 79.4053 190.686 79.8835C190.511 80.3617 190.423 80.9157 190.423 81.5455C190.423 82.1799 190.511 82.741 190.686 83.2287C190.866 83.7116 191.124 84.0904 191.46 84.3651C191.801 84.6349 192.22 84.7699 192.717 84.7699ZM209.139 87V72.4545H214.878C215.976 72.4545 216.914 72.651 217.69 73.044C218.472 73.4323 219.066 73.9839 219.473 74.6989C219.885 75.4091 220.091 76.2448 220.091 77.206C220.091 78.1719 219.883 79.0028 219.466 79.6989C219.049 80.3902 218.446 80.9205 217.655 81.2898C216.869 81.6591 215.917 81.8438 214.8 81.8438H210.957V79.3722H214.303C214.89 79.3722 215.377 79.2917 215.766 79.1307C216.154 78.9697 216.443 78.7282 216.632 78.4062C216.826 78.0843 216.923 77.6842 216.923 77.206C216.923 76.723 216.826 76.3158 216.632 75.9844C216.443 75.6529 216.152 75.402 215.759 75.2315C215.37 75.0563 214.88 74.9688 214.288 74.9688H212.214V87H209.139ZM216.994 80.3807L220.609 87H217.214L213.678 80.3807H216.994ZM229.003 87.2131C227.881 87.2131 226.915 86.9858 226.105 86.5312C225.301 86.072 224.68 85.4233 224.245 84.5852C223.809 83.7424 223.591 82.7457 223.591 81.5952C223.591 80.473 223.809 79.4882 224.245 78.6406C224.68 77.7931 225.293 77.1326 226.084 76.6591C226.88 76.1856 227.812 75.9489 228.882 75.9489C229.602 75.9489 230.272 76.0649 230.892 76.2969C231.517 76.5241 232.062 76.8674 232.526 77.3267C232.995 77.786 233.359 78.3636 233.62 79.0597C233.88 79.7509 234.01 80.5606 234.01 81.4886V82.3196H224.799V80.4446H231.162C231.162 80.009 231.068 79.6231 230.878 79.2869C230.689 78.9508 230.426 78.688 230.09 78.4986C229.758 78.3045 229.373 78.2074 228.932 78.2074C228.473 78.2074 228.066 78.3139 227.711 78.527C227.36 78.7353 227.086 79.017 226.887 79.3722C226.688 79.7225 226.586 80.1132 226.581 80.544V82.3267C226.581 82.8665 226.681 83.3329 226.88 83.7259C227.083 84.1188 227.37 84.4219 227.739 84.6349C228.108 84.848 228.546 84.9545 229.053 84.9545C229.389 84.9545 229.697 84.9072 229.976 84.8125C230.256 84.7178 230.495 84.5758 230.694 84.3864C230.892 84.197 231.044 83.965 231.148 83.6903L233.946 83.875C233.804 84.5473 233.513 85.1345 233.073 85.6364C232.637 86.1335 232.074 86.5218 231.382 86.8011C230.696 87.0758 229.903 87.2131 229.003 87.2131ZM242.914 87.2131C241.796 87.2131 240.835 86.9763 240.03 86.5028C239.23 86.0246 238.614 85.3617 238.184 84.5142C237.757 83.6667 237.544 82.6913 237.544 81.5881C237.544 80.4706 237.76 79.4905 238.191 78.6477C238.626 77.8002 239.244 77.1397 240.044 76.6662C240.845 76.188 241.796 75.9489 242.9 75.9489C243.851 75.9489 244.685 76.1217 245.4 76.4673C246.114 76.813 246.68 77.2983 247.097 77.9233C247.514 78.5483 247.743 79.2822 247.786 80.125H244.931C244.85 79.5805 244.637 79.1425 244.292 78.8111C243.951 78.4749 243.503 78.3068 242.949 78.3068C242.48 78.3068 242.071 78.4347 241.721 78.6903C241.375 78.9413 241.105 79.3082 240.911 79.7912C240.717 80.2741 240.62 80.8589 240.62 81.5455C240.62 82.2415 240.714 82.8333 240.904 83.321C241.098 83.8087 241.37 84.1804 241.721 84.4361C242.071 84.6918 242.48 84.8196 242.949 84.8196C243.295 84.8196 243.605 84.7486 243.88 84.6065C244.159 84.4645 244.389 84.2585 244.569 83.9886C244.753 83.714 244.874 83.3849 244.931 83.0014H247.786C247.739 83.8348 247.511 84.5687 247.104 85.2031C246.702 85.8329 246.145 86.3253 245.435 86.6804C244.725 87.0355 243.884 87.2131 242.914 87.2131ZM256.652 87.2131C255.549 87.2131 254.595 86.9787 253.79 86.5099C252.99 86.0365 252.372 85.3783 251.936 84.5355C251.5 83.688 251.283 82.7055 251.283 81.5881C251.283 80.4612 251.5 79.4763 251.936 78.6335C252.372 77.786 252.99 77.1278 253.79 76.6591C254.595 76.1856 255.549 75.9489 256.652 75.9489C257.755 75.9489 258.707 76.1856 259.507 76.6591C260.312 77.1278 260.932 77.786 261.368 78.6335C261.804 79.4763 262.021 80.4612 262.021 81.5881C262.021 82.7055 261.804 83.688 261.368 84.5355C260.932 85.3783 260.312 86.0365 259.507 86.5099C258.707 86.9787 257.755 87.2131 256.652 87.2131ZM256.666 84.8693C257.168 84.8693 257.587 84.7273 257.923 84.4432C258.259 84.1544 258.513 83.7614 258.683 83.2642C258.858 82.767 258.946 82.2012 258.946 81.5668C258.946 80.9323 258.858 80.3665 258.683 79.8693C258.513 79.3722 258.259 78.9792 257.923 78.6903C257.587 78.4015 257.168 78.2571 256.666 78.2571C256.16 78.2571 255.733 78.4015 255.388 78.6903C255.047 78.9792 254.789 79.3722 254.614 79.8693C254.443 80.3665 254.358 80.9323 254.358 81.5668C254.358 82.2012 254.443 82.767 254.614 83.2642C254.789 83.7614 255.047 84.1544 255.388 84.4432C255.733 84.7273 256.16 84.8693 256.666 84.8693ZM265.989 87V76.0909H268.922V77.9943H269.036C269.234 77.3172 269.568 76.8059 270.037 76.4602C270.506 76.1098 271.045 75.9347 271.656 75.9347C271.808 75.9347 271.971 75.9441 272.146 75.9631C272.321 75.982 272.475 76.008 272.608 76.0412V78.7259C272.466 78.6832 272.269 78.6454 272.018 78.6122C271.768 78.5791 271.538 78.5625 271.33 78.5625C270.884 78.5625 270.487 78.6596 270.136 78.8537C269.791 79.0431 269.516 79.3082 269.312 79.6491C269.114 79.9901 269.014 80.383 269.014 80.8281V87H265.989ZM279.684 87.1776C278.856 87.1776 278.105 86.9645 277.433 86.5384C276.765 86.1075 276.235 85.4754 275.842 84.642C275.454 83.804 275.26 82.7765 275.26 81.5597C275.26 80.3097 275.461 79.2704 275.863 78.4418C276.266 77.6084 276.801 76.9858 277.468 76.5739C278.141 76.1572 278.877 75.9489 279.677 75.9489C280.288 75.9489 280.797 76.053 281.204 76.2614C281.616 76.465 281.948 76.7206 282.199 77.0284C282.454 77.3314 282.648 77.6297 282.781 77.9233H282.873V72.4545H285.892V87H282.909V85.2528H282.781C282.639 85.5559 282.438 85.8565 282.177 86.1548C281.922 86.4484 281.588 86.6922 281.176 86.8864C280.769 87.0805 280.271 87.1776 279.684 87.1776ZM280.643 84.7699C281.131 84.7699 281.543 84.6373 281.879 84.3722C282.22 84.1023 282.48 83.7259 282.66 83.2429C282.845 82.7599 282.937 82.1941 282.937 81.5455C282.937 80.8968 282.847 80.3333 282.667 79.8551C282.487 79.3769 282.227 79.0076 281.886 78.7472C281.545 78.4867 281.131 78.3565 280.643 78.3565C280.146 78.3565 279.727 78.4915 279.386 78.7614C279.045 79.0312 278.787 79.4053 278.612 79.8835C278.437 80.3617 278.349 80.9157 278.349 81.5455C278.349 82.1799 278.437 82.741 278.612 83.2287C278.792 83.7116 279.05 84.0904 279.386 84.3651C279.727 84.6349 280.146 84.7699 280.643 84.7699ZM290.379 87V76.0909H293.405V87H290.379ZM291.899 74.6847C291.449 74.6847 291.063 74.5355 290.741 74.2372C290.424 73.9342 290.266 73.572 290.266 73.1506C290.266 72.7339 290.424 72.3764 290.741 72.0781C291.063 71.7751 291.449 71.6236 291.899 71.6236C292.349 71.6236 292.732 71.7751 293.05 72.0781C293.372 72.3764 293.533 72.7339 293.533 73.1506C293.533 73.572 293.372 73.9342 293.05 74.2372C292.732 74.5355 292.349 74.6847 291.899 74.6847ZM300.854 80.6932V87H297.828V76.0909H300.712V78.0156H300.84C301.081 77.3812 301.486 76.8793 302.054 76.5099C302.623 76.1359 303.311 75.9489 304.121 75.9489C304.879 75.9489 305.539 76.1146 306.103 76.446C306.666 76.7775 307.104 77.2509 307.417 77.8665C307.729 78.4773 307.885 79.2064 307.885 80.054V87H304.86V80.5938C304.864 79.9261 304.694 79.4053 304.348 79.0312C304.003 78.6525 303.527 78.4631 302.921 78.4631C302.514 78.4631 302.154 78.5507 301.841 78.7259C301.533 78.901 301.292 79.1567 301.117 79.4929C300.946 79.8243 300.859 80.2244 300.854 80.6932ZM317.185 91.3182C316.205 91.3182 315.364 91.1832 314.663 90.9134C313.967 90.6482 313.413 90.286 313.001 89.8267C312.589 89.3674 312.322 88.8513 312.199 88.2784L314.997 87.902C315.082 88.1198 315.217 88.3234 315.402 88.5128C315.587 88.7022 315.83 88.8537 316.134 88.9673C316.441 89.0857 316.815 89.1449 317.256 89.1449C317.914 89.1449 318.456 88.9839 318.882 88.6619C319.313 88.3447 319.528 87.812 319.528 87.0639V85.0682H319.401C319.268 85.3712 319.069 85.6577 318.804 85.9276C318.539 86.1974 318.198 86.4176 317.781 86.5881C317.365 86.7585 316.867 86.8438 316.29 86.8438C315.471 86.8438 314.725 86.6544 314.053 86.2756C313.385 85.892 312.852 85.3073 312.455 84.5213C312.062 83.7306 311.865 82.7315 311.865 81.5241C311.865 80.2884 312.066 79.2562 312.469 78.4276C312.871 77.599 313.406 76.9787 314.074 76.5668C314.746 76.1548 315.482 75.9489 316.283 75.9489C316.893 75.9489 317.405 76.053 317.817 76.2614C318.229 76.465 318.56 76.7206 318.811 77.0284C319.067 77.3314 319.263 77.6297 319.401 77.9233H319.514V76.0909H322.518V87.1065C322.518 88.0346 322.291 88.8111 321.837 89.4361C321.382 90.0611 320.752 90.5298 319.947 90.8423C319.147 91.1596 318.226 91.3182 317.185 91.3182ZM317.249 84.571C317.736 84.571 318.148 84.4503 318.484 84.2088C318.825 83.9626 319.086 83.6122 319.266 83.1577C319.45 82.6984 319.543 82.1491 319.543 81.5099C319.543 80.8707 319.453 80.3168 319.273 79.848C319.093 79.3745 318.832 79.0076 318.491 78.7472C318.151 78.4867 317.736 78.3565 317.249 78.3565C316.751 78.3565 316.332 78.4915 315.991 78.7614C315.651 79.0265 315.393 79.3958 315.217 79.8693C315.042 80.3428 314.955 80.8897 314.955 81.5099C314.955 82.1397 315.042 82.6842 315.217 83.1435C315.397 83.598 315.655 83.9508 315.991 84.2017C316.332 84.4479 316.751 84.571 317.249 84.571Z" fill="#C1A855"/>
<path d="M168.964 109.864L166.295 117.5H163.908L161.239 109.864H163.476L165.062 115.327H165.141L166.722 109.864H168.964ZM180.061 117.724C179.206 117.72 178.47 117.51 177.853 117.092C177.24 116.675 176.768 116.07 176.437 115.278C176.108 114.486 175.946 113.533 175.949 112.419C175.949 111.309 176.113 110.362 176.442 109.58C176.773 108.798 177.245 108.203 177.858 107.795C178.475 107.384 179.209 107.179 180.061 107.179C180.913 107.179 181.645 107.384 182.258 107.795C182.875 108.206 183.349 108.803 183.68 109.585C184.012 110.364 184.176 111.309 184.172 112.419C184.172 113.536 184.007 114.491 183.675 115.283C183.347 116.075 182.876 116.68 182.263 117.097C181.65 117.515 180.916 117.724 180.061 117.724ZM180.061 115.939C180.644 115.939 181.11 115.646 181.458 115.059C181.806 114.472 181.978 113.592 181.975 112.419C181.975 111.647 181.895 111.004 181.736 110.49C181.58 109.976 181.358 109.59 181.07 109.332C180.785 109.073 180.449 108.944 180.061 108.944C179.481 108.944 179.017 109.234 178.669 109.814C178.321 110.394 178.145 111.262 178.142 112.419C178.142 113.201 178.22 113.854 178.375 114.378C178.535 114.898 178.758 115.289 179.047 115.551C179.335 115.81 179.673 115.939 180.061 115.939ZM187.955 117.629C187.627 117.629 187.345 117.513 187.11 117.281C186.878 117.046 186.762 116.764 186.762 116.436C186.762 116.111 186.878 115.833 187.11 115.601C187.345 115.369 187.627 115.253 187.955 115.253C188.273 115.253 188.552 115.369 188.79 115.601C189.029 115.833 189.148 116.111 189.148 116.436C189.148 116.655 189.092 116.855 188.979 117.038C188.87 117.217 188.726 117.361 188.547 117.47C188.368 117.576 188.17 117.629 187.955 117.629ZM195.425 107.318V117.5H193.273V109.362H193.213L190.881 110.823V108.914L193.402 107.318H195.425ZM203.945 117.5V107.318H208.022C208.771 107.318 209.396 107.429 209.896 107.651C210.397 107.873 210.773 108.182 211.025 108.576C211.277 108.967 211.402 109.418 211.402 109.928C211.402 110.326 211.323 110.676 211.164 110.977C211.005 111.276 210.786 111.521 210.508 111.713C210.233 111.902 209.918 112.036 209.563 112.116V112.215C209.951 112.232 210.314 112.341 210.652 112.543C210.993 112.746 211.27 113.029 211.482 113.393C211.694 113.755 211.8 114.186 211.8 114.686C211.8 115.226 211.666 115.709 211.398 116.133C211.132 116.554 210.74 116.887 210.219 117.132C209.699 117.377 209.058 117.5 208.295 117.5H203.945ZM206.098 115.74H207.853C208.453 115.74 208.89 115.626 209.165 115.397C209.44 115.165 209.578 114.857 209.578 114.472C209.578 114.191 209.51 113.942 209.374 113.727C209.238 113.511 209.044 113.342 208.792 113.219C208.544 113.097 208.247 113.036 207.902 113.036H206.098V115.74ZM206.098 111.579H207.694C207.989 111.579 208.25 111.527 208.479 111.425C208.711 111.319 208.893 111.17 209.026 110.977C209.162 110.785 209.23 110.555 209.23 110.286C209.23 109.918 209.099 109.622 208.837 109.396C208.579 109.171 208.211 109.058 207.733 109.058H206.098V111.579ZM214.601 117.5V107.318H221.462V109.093H216.754V111.519H221.109V113.294H216.754V115.725H221.482V117.5H214.601ZM224.185 109.093V107.318H232.548V109.093H229.43V117.5H227.303V109.093H224.185ZM235.836 117.5H233.529L237.044 107.318H239.818L243.328 117.5H241.021L238.471 109.645H238.391L235.836 117.5ZM235.691 113.498H241.14V115.178H235.691V113.498Z" fill="#808080"/>
<path d="M49.844 19.304L41.06 53H31.124L25.748 30.824L20.18 53H10.244L1.7 19.304H10.484L15.332 43.832L21.332 19.304H30.356L36.116 43.832L41.012 19.304H49.844ZM71.8164 47.048H59.2404L57.2244 53H48.6324L60.8244 19.304H70.3284L82.5204 53H73.8324L71.8164 47.048ZM69.7044 40.712L65.5284 28.376L61.4004 40.712H69.7044ZM114.743 19.304L102.791 53H92.519L80.567 19.304H89.303L97.655 44.744L106.055 19.304H114.743ZM123.261 25.88V32.696H134.253V39.032H123.261V46.424H135.694V53H115.053V19.304H135.694V25.88H123.261ZM176.538 53H168.33L154.602 32.216V53H146.394V19.304H154.602L168.33 40.184V19.304H176.538V53ZM189.016 25.88V32.696H200.008V39.032H189.016V46.424H201.448V53H180.808V19.304H201.448V25.88H189.016ZM213.161 19.304V39.464C213.161 41.48 213.657 43.032 214.649 44.12C215.641 45.208 217.097 45.752 219.017 45.752C220.937 45.752 222.409 45.208 223.433 44.12C224.457 43.032 224.969 41.48 224.969 39.464V19.304H233.177V39.416C233.177 42.424 232.537 44.968 231.257 47.048C229.977 49.128 228.249 50.696 226.073 51.752C223.929 52.808 221.529 53.336 218.873 53.336C216.217 53.336 213.833 52.824 211.721 51.8C209.641 50.744 207.993 49.176 206.777 47.096C205.561 44.984 204.953 42.424 204.953 39.416V19.304H213.161ZM254.444 53L247.436 40.28H245.468V53H237.26V19.304H251.036C253.692 19.304 255.948 19.768 257.804 20.696C259.692 21.624 261.1 22.904 262.028 24.536C262.956 26.136 263.42 27.928 263.42 29.912C263.42 32.152 262.78 34.152 261.5 35.912C260.252 37.672 258.396 38.92 255.932 39.656L263.708 53H254.444ZM245.468 34.472H250.556C252.06 34.472 253.18 34.104 253.916 33.368C254.684 32.632 255.068 31.592 255.068 30.248C255.068 28.968 254.684 27.96 253.916 27.224C253.18 26.488 252.06 26.12 250.556 26.12H245.468V34.472ZM282.829 53.336C279.661 53.336 276.749 52.6 274.093 51.128C271.469 49.656 269.373 47.608 267.805 44.984C266.269 42.328 265.501 39.352 265.501 36.056C265.501 32.76 266.269 29.8 267.805 27.176C269.373 24.552 271.469 22.504 274.093 21.032C276.749 19.56 279.661 18.824 282.829 18.824C285.997 18.824 288.893 19.56 291.517 21.032C294.173 22.504 296.253 24.552 297.757 27.176C299.293 29.8 300.061 32.76 300.061 36.056C300.061 39.352 299.293 42.328 297.757 44.984C296.221 47.608 294.141 49.656 291.517 51.128C288.893 52.6 285.997 53.336 282.829 53.336ZM282.829 45.848C285.517 45.848 287.661 44.952 289.261 43.16C290.893 41.368 291.709 39 291.709 36.056C291.709 33.08 290.893 30.712 289.261 28.952C287.661 27.16 285.517 26.264 282.829 26.264C280.109 26.264 277.933 27.144 276.301 28.904C274.701 30.664 273.901 33.048 273.901 36.056C273.901 39.032 274.701 41.416 276.301 43.208C277.933 44.968 280.109 45.848 282.829 45.848ZM337.119 30.152C337.119 32.104 336.671 33.896 335.775 35.528C334.879 37.128 333.503 38.424 331.647 39.416C329.791 40.408 327.487 40.904 324.735 40.904H319.647V53H311.439V19.304H324.735C327.423 19.304 329.695 19.768 331.551 20.696C333.407 21.624 334.799 22.904 335.727 24.536C336.655 26.168 337.119 28.04 337.119 30.152ZM324.111 34.376C325.679 34.376 326.847 34.008 327.615 33.272C328.383 32.536 328.767 31.496 328.767 30.152C328.767 28.808 328.383 27.768 327.615 27.032C326.847 26.296 325.679 25.928 324.111 25.928H319.647V34.376H324.111ZM356.896 53L349.888 40.28H347.92V53H339.712V19.304H353.488C356.144 19.304 358.4 19.768 360.256 20.696C362.144 21.624 363.552 22.904 364.48 24.536C365.408 26.136 365.872 27.928 365.872 29.912C365.872 32.152 365.232 34.152 363.952 35.912C362.704 37.672 360.848 38.92 358.384 39.656L366.16 53H356.896ZM347.92 34.472H353.008C354.512 34.472 355.632 34.104 356.368 33.368C357.136 32.632 357.52 31.592 357.52 30.248C357.52 28.968 357.136 27.96 356.368 27.224C355.632 26.488 354.512 26.12 353.008 26.12H347.92V34.472ZM385.281 53.336C382.113 53.336 379.201 52.6 376.545 51.128C373.921 49.656 371.825 47.608 370.257 44.984C368.721 42.328 367.953 39.352 367.953 36.056C367.953 32.76 368.721 29.8 370.257 27.176C371.825 24.552 373.921 22.504 376.545 21.032C379.201 19.56 382.113 18.824 385.281 18.824C388.449 18.824 391.345 19.56 393.969 21.032C396.625 22.504 398.705 24.552 400.209 27.176C401.745 29.8 402.513 32.76 402.513 36.056C402.513 39.352 401.745 42.328 400.209 44.984C398.673 47.608 396.593 49.656 393.969 51.128C391.345 52.6 388.449 53.336 385.281 53.336ZM385.281 45.848C387.969 45.848 390.113 44.952 391.713 43.16C393.345 41.368 394.161 39 394.161 36.056C394.161 33.08 393.345 30.712 391.713 28.952C390.113 27.16 387.969 26.264 385.281 26.264C382.561 26.264 380.385 27.144 378.753 28.904C377.153 30.664 376.353 33.048 376.353 36.056C376.353 39.032 377.153 41.416 378.753 43.208C380.385 44.968 382.561 45.848 385.281 45.848Z" fill="#51C3E0"/>
</svg>
