<svg width="25" height="24" viewBox="0 0 25 24" fill="none" xmlns="http://www.w3.org/2000/svg">
<path d="M23.5847 21.5415H18.0783V19.481L18.3875 19.2937C19.7195 18.4859 20.885 17.362 21.7413 16.0624C22.8474 14.3766 23.4301 12.4332 23.4301 10.4195C23.4301 4.67122 18.6848 0 12.8454 0C7.00594 0 2.26065 4.67122 2.26065 10.4195C2.26065 12.4332 2.84341 14.3883 3.94945 16.0624C4.80575 17.362 5.95936 18.4741 7.29138 19.2937L7.60059 19.481V21.5415H2.08226C1.39247 21.5415 0.833496 22.0917 0.833496 22.7707C0.833496 23.4498 1.39247 24 2.08226 24H8.83746C9.52725 24 10.0862 23.4498 10.0862 22.7707V18.7317C10.0862 18.2634 9.80079 17.8185 9.37264 17.6195C6.5659 16.3083 4.74628 13.4868 4.74628 10.4195C4.74628 6.02927 8.37363 2.45854 12.8335 2.45854C17.2934 2.45854 20.9207 6.02927 20.9207 10.4195C20.9207 13.4868 19.1011 16.3083 16.2943 17.6195C15.8543 17.8185 15.5808 18.2634 15.5808 18.7317V22.7707C15.5808 23.4498 16.1397 24 16.8295 24H23.5847C24.2745 24 24.8335 23.4498 24.8335 22.7707C24.8335 22.0917 24.2745 21.5415 23.5847 21.5415Z" fill="white"/>
</svg>
