<svg width="26" height="24" viewBox="0 0 26 24" fill="none" xmlns="http://www.w3.org/2000/svg">
<path d="M24.1959 23.6722C23.5026 23.6722 22.9407 23.0933 22.9407 22.379V2.58645H17.7407V22.379C17.7407 23.0933 17.1788 23.6722 16.4855 23.6722H9.18146C8.84675 23.6722 8.52398 23.5367 8.29685 23.2904C8.05777 23.0441 7.92627 22.7238 7.92627 22.379V2.58645H2.7262V22.379C2.7262 23.0933 2.16435 23.6722 1.47101 23.6722C0.777667 23.6722 0.21582 23.0933 0.21582 22.379V1.29323C0.21582 0.578873 0.777667 0 1.47101 0H9.18146C9.51618 0 9.83894 0.135481 10.0661 0.38181C10.3052 0.628138 10.4367 0.948366 10.4367 1.29323V21.0857H15.2303V1.29323C15.2303 0.578873 15.7921 0 16.4855 0H24.1959C24.8893 0 25.4511 0.578873 25.4511 1.29323V22.379C25.4511 23.0933 24.8893 23.6722 24.1959 23.6722Z" fill="white"/>
</svg>
