<svg width="33" height="16" viewBox="0 0 33 16" fill="none" xmlns="http://www.w3.org/2000/svg">
<path d="M25.2727 14.1224L31.3317 14.1224C31.9653 14.1224 32.4836 13.6155 32.4836 12.9705L32.4836 3.01799C32.4836 2.37292 31.9653 1.86608 31.3317 1.86608L25.2727 1.86608C25.0769 0.806348 24.1439 -3.64544e-07 23.015 -4.13887e-07L11.0006 -9.39052e-07C9.73349 -9.94441e-07 8.69681 1.02521 8.69681 2.30381L8.69681 3.73217L5.80552 3.73216C5.17198 3.73216 4.65361 4.25054 4.65361 4.88407L4.65361 6.84233L1.38216 6.84233C0.746029 6.84233 0.230259 7.3581 0.230259 7.99423C0.230259 8.63037 0.746029 9.14614 1.38216 9.14614L4.65361 9.14614L4.65361 11.1044C4.65361 11.7379 5.17198 12.2563 5.80552 12.2563L8.69681 12.2563L8.69681 13.6962C8.69681 14.9633 9.73349 16 11.0006 16L23.015 16C24.1438 16 25.0769 15.1937 25.2727 14.1224ZM30.1798 4.1699L30.1798 11.8186L25.3188 11.8186L25.3188 4.1699L30.1798 4.1699ZM18.1655 9.54928C18.1655 9.94096 17.9581 10.3096 17.6241 10.5284C17.29 10.7358 16.8753 10.7588 16.5182 10.586L13.6385 9.20372C13.2238 9.00792 12.9819 8.59325 12.9819 8.16705C12.9819 7.99423 13.0165 7.83295 13.0971 7.67167C13.3736 7.09571 14.0531 6.85386 14.6291 7.1303L15.8616 7.71779L15.8616 6.43919C15.8616 6.04751 16.069 5.67889 16.4031 5.46003C16.7371 5.25269 17.1518 5.22963 17.5089 5.40244L20.3886 6.78475C20.9646 7.06119 21.2065 7.75231 20.9301 8.3168C20.6536 8.89275 19.9624 9.13461 19.398 8.85816L18.1655 8.27068L18.1655 9.54928Z" fill="white"/>
<path d="M28.9041 6.55369L28.9041 5.97794C28.9041 5.34201 28.3885 4.82642 27.7525 4.82642C27.1166 4.82642 26.601 5.34201 26.601 5.97794L26.601 6.55369C26.601 7.18962 27.1166 7.70521 27.7525 7.70521C28.3885 7.70521 28.9041 7.18962 28.9041 6.55369Z" fill="white"/>
<path d="M28.9041 10.0095L28.9041 9.43375C28.9041 8.79782 28.3885 8.28223 27.7525 8.28223C27.1166 8.28223 26.601 8.79782 26.601 9.43375L26.601 10.0095C26.601 10.646 27.1166 11.161 27.7525 11.161C28.3885 11.161 28.9041 10.646 28.9041 10.0095Z" fill="white"/>
</svg>
